# xmcd
#
# Track frame offsets:
#   200
#   6215
#   17754
#   32506
#   47436
#   61893
#   76317
#   86269
#   98302
#   114813
#   128935
#   142392
#   153565
#   168005
#   177523
#   193773
#
# Disc length: 2748 seconds
#
# Revision: 0
# Processed by: cddbd v1.5.1PL2 Copyright (c) Steve Scherf et al.
# Submitted via: GXTranscoder 2.0.1939
#
DISCID=bd0aba10
DTITLE=Bob Whitney - We Don't Care
DYEAR=1900
DGENRE=Country
TTITLE0=Spitoon
TTITLE1=There ain't no good Chain gang
TTITLE2=I counldn't leave you if I try
TTITLE3=Big River/A Thing Called Love
TTITLE4=Storms never last
TTITLE5=Eastbound and Down
TTITLE6=I Dont' care
TTITLE7=Trouble Mna
TTITLE8=The Legend and the Man
TTITLE9=Hey Good Looking
TTITLE10=Long black Veil
TTITLE11=Even Cowgirls get the Blues
TTITLE12=Tulsa Time
TTITLE13=Steel Guitar Rag
TTITLE14=Das Bild in der Zeitung
TTITLE15=Don't rock the Jukebox
EXTD=
EXTT0=
EXTT1=
EXTT2=
EXTT3=
EXTT4=
EXTT5=
EXTT6=
EXTT7=
EXTT8=
EXTT9=
EXTT10=
EXTT11=
EXTT12=
EXTT13=
EXTT14=
EXTT15=
PLAYORDER=
